<?xml version="1.0" encoding="UTF-8"?>
<!DOCTYPE svg PUBLIC "-//W3C//DTD SVG 1.1//EN" "http://www.w3.org/Graphics/SVG/1.1/DTD/svg11.dtd">
<!-- Creator: CorelDRAW 2017 -->
<svg xmlns="http://www.w3.org/2000/svg" xml:space="preserve" width="5.2916mm" height="4.7626mm" version="1.1" style="shape-rendering:geometricPrecision; text-rendering:geometricPrecision; image-rendering:optimizeQuality; fill-rule:evenodd; clip-rule:evenodd"
viewBox="0 0 0.58 0.52"
 xmlns:xlink="http://www.w3.org/1999/xlink">
 <defs>
  <style type="text/css">
   <![CDATA[
    .fil0 {fill:#FEFEFE;fill-opacity:0.541176}
   ]]>
  </style>
 </defs>
 <g id="Слой_x0020_1">
  <metadata id="CorelCorpID_0Corel-Layer"/>
  <g id="_1257618660240">
   <g id="camera_enhance_24px">
    <path id="icon_x002f_action_x002f_camera_enhance_24px" class="fil0" d="M0.52 0.06l-0.09 0 -0.05 -0.06 -0.17 0 -0.05 0.06 -0.09 0c-0.03,0 -0.06,0.03 -0.06,0.06l0 0.35c0,0.03 0.03,0.06 0.06,0.06l0.46 0c0.03,0 0.06,-0.03 0.06,-0.06l0 -0.35c0,-0.03 -0.03,-0.06 -0.06,-0.06zm-0.23 0.14l-0.03 0.06 -0.06 0.03c0,-0.05 0.04,-0.09 0.09,-0.09zm0.09 0.09c0,-0.05 -0.04,-0.09 -0.09,-0.09l0.03 0.06 0.06 0.03zm-0.09 0.09l0.03 -0.06 0.06 -0.03c0,0.05 -0.04,0.09 -0.09,0.09zm0 0l-0.03 -0.06 -0.06 -0.03c0,0.05 0.04,0.09 0.09,0.09zm-0.23 0.09l0.46 0 0 -0.35 -0.12 0 -0.02 -0.02 -0.04 -0.04 -0.12 0 -0.04 0.04 -0.02 0.02 -0.12 0 0 0.35zm0.23 -0.32c-0.08,0 -0.14,0.06 -0.14,0.14 0,0.08 0.06,0.14 0.14,0.14 0.08,0 0.14,-0.06 0.14,-0.14 0,-0.08 -0.06,-0.14 -0.14,-0.14z"/>
   </g>
  </g>
 </g>
</svg>
