<svg width="58" height="58" viewBox="0 0 58 58" fill="none" xmlns="http://www.w3.org/2000/svg">
<circle cx="29" cy="29" r="29" fill="none" fill-opacity="0.36"/>
<g clip-path="url(#clip0)">
<path fill-rule="evenodd" clip-rule="evenodd" d="M17.406 12.2737L17.3843 15.7821L10.0102 15.7815C10.0077 20.1998 9.95715 24.7753 12.3676 28.4601C13.6572 30.4315 15.6995 31.8812 18.0348 32.4048C19.1025 32.6443 18.8162 32.6735 19.3323 33.4653C20.604 35.4167 22.4918 36.9057 24.7537 37.7478C25.3942 37.9864 26.0094 38.0645 26.6515 38.2794L26.6482 42.1369C25.6976 42.2391 23.117 42.1785 21.9985 42.1805C19.0763 42.1805 19.2603 43.1876 19.2546 45.925C22.2135 46.0571 27.8635 45.9499 31.0994 45.9491L37.7434 45.9408C37.7432 44.8546 37.9011 43.7669 37.4041 42.9693C36.7233 41.8766 34.3983 42.1774 33.0929 42.1781L30.3486 42.1483L30.3505 38.2828C32.8289 37.4947 34.4332 37.1378 36.4229 35.0275C36.9553 34.4628 37.4829 33.7827 37.9032 33.0886C38.6931 31.7841 39.3673 32.8626 41.914 31.1679C46.7467 27.952 46.9693 22.2848 46.9909 15.7815L39.6208 15.7812L39.5921 12.01H17.4061V12.2737H17.406ZM26.6706 22.0549L22.0716 22.4401L24.65 24.7707C24.9388 25.0089 25.2613 25.3517 25.5535 25.5172L24.5158 30.1451C25.2134 29.8744 28.2286 27.7928 28.5002 27.7915C28.7884 27.79 31.7756 29.8853 32.4717 30.1551L31.4298 25.5257L34.0544 23.2445C34.3071 23.0268 34.747 22.6776 34.9254 22.4415L30.3546 22.0452L28.5328 17.7523L26.6705 22.0549H26.6706ZM17.4455 28.1481L17.3994 19.5501L13.7258 19.5537C13.6671 21.7101 14.3766 24.9848 15.716 26.7254C16.0424 27.1496 16.7977 27.9411 17.4454 28.1481H17.4455ZM39.5855 28.1481C40.795 27.7511 41.8942 25.9862 42.3668 24.7368C42.8445 23.4743 43.2986 21.0699 43.2719 19.5713L39.6209 19.5495L39.5855 28.148V28.1481Z" fill="#FCE300" stroke="#FCE300" stroke-width="0.0760612" stroke-miterlimit="22.9256"/>
</g>
<defs>
<clipPath id="clip0">
<rect x="10" y="12" width="37" height="34" fill="white"/>
</clipPath>
</defs>
</svg>
