<svg width="29" height="26" viewBox="0 0 29 26" fill="none" xmlns="http://www.w3.org/2000/svg">
<g clip-path="url(#clip0)">
<path fill-rule="evenodd" clip-rule="evenodd" d="M26.4161 2.78422C25.144 3.16809 22.1606 4.68338 21.0028 4.8206C19.9078 4.95044 18.9092 4.42197 17.9242 4.16598C15.7901 3.61145 13.3581 3.64402 11.2226 4.14449C10.194 4.38549 9.23253 4.91874 8.10835 4.81908C6.854 4.70792 3.85235 3.12749 2.61669 2.78856C2.56084 3.33332 2.5991 4.19356 2.60723 4.76589L2.61779 10.8653C2.63098 13.811 2.40122 15.5219 3.76044 17.8334C5.86481 21.4124 10.1762 23.5013 14.501 23.4623C19.7477 23.4149 23.4288 20.9699 25.2829 17.8746C26.6314 15.6235 26.4361 13.8312 26.4225 10.9187C26.41 8.25026 26.5234 5.43072 26.4164 2.78422H26.4161ZM1.71171 0.0356735C1.15544 0.146406 0.629077 0.448856 0.335992 0.940203C-0.124633 1.71251 0.0301548 2.7764 0.0323535 3.63838C0.0389496 6.29551 0.0404887 8.95287 0.0477443 11.61C0.0543404 14.0413 -0.0586721 15.6943 0.950305 17.9632C1.77371 19.8153 2.5936 20.72 4.01901 22.1207C6.6394 24.6957 11.0425 26.0432 14.6965 25.9932C18.6776 25.9387 22.3413 24.5826 25.2629 21.897C26.4537 20.8023 27.5445 19.2325 28.1597 17.7446C29.1065 15.4555 28.9387 13.6503 28.9532 11.2307C28.969 8.5729 28.9503 5.9149 28.969 3.25711C28.9752 2.39904 29.1267 1.53664 28.6014 0.799508C28.2679 0.331176 27.7272 0.0424043 27.1498 0.0104874C26.3511 -0.0333713 25.3922 0.492932 24.6596 0.777796C23.6955 1.15277 22.7364 1.53989 21.7765 1.92485C20.5243 2.42684 20.3904 2.22144 19.2205 1.8836C16.1311 0.991661 12.613 0.986884 9.54497 1.96979C9.02652 2.13589 8.56018 2.27811 8.00501 2.18214C7.59847 2.11179 7.30187 1.92963 6.93249 1.78133C5.9776 1.39811 5.01633 1.03096 4.06496 0.639489C3.36798 0.352671 2.48785 -0.1187 1.71193 0.0356735H1.71171Z" fill="white" stroke="white" stroke-width="0.0758753" stroke-miterlimit="22.9256"/>
</g>
<defs>
<clipPath id="clip0">
<rect width="29" height="26" fill="white"/>
</clipPath>
</defs>
</svg>
