<svg width="28" height="35" viewBox="0 0 28 35" fill="none" xmlns="http://www.w3.org/2000/svg">
<g clip-path="url(#clip0)">
<path fill-rule="evenodd" clip-rule="evenodd" d="M21.3501 6.14109C21.337 6.13868 21.3244 6.13675 21.3123 6.13482C20.2916 5.97368 19.3793 6.47205 18.4573 6.48652L17.8655 6.49569L15.9373 5.2751C15.2148 4.83994 14.0807 4.19925 13.0474 3.75299C13.6202 5.29488 14.7296 7.32742 15.2129 8.18665C15.3678 8.46213 15.5441 8.71589 15.6889 9.00054C16.0729 9.7546 15.9271 10.3359 15.8937 11.0866C15.8681 12.0843 16.0095 13.2287 16.4738 14.1265C16.76 14.6794 17.1668 15.1387 17.713 15.4421C17.9532 15.5555 18.1493 15.6419 18.3725 15.8059L19.2413 16.4446L19.1715 17.5176C19.0592 19.2414 17.5222 21.0134 16.2341 22.0844C15.5427 22.6595 14.6865 23.2572 13.8769 23.648C12.1515 24.4807 10.0916 25.9831 9.52456 27.8873C8.71541 30.6025 8.56578 31.6228 10.9414 32.9351C21.1487 33.3953 15.7901 33.2265 18.4219 30.4302C18.6277 30.2117 18.8384 30.0616 19.097 29.9299C19.3081 29.7563 19.618 29.3389 19.7763 29.1286C19.9424 28.8806 20.1085 28.6944 20.3487 28.5077L23.1171 26.3545C23.1239 25.7172 23.1287 25.0794 23.1306 24.4416C23.1335 23.3619 23.1306 22.2803 23.1021 21.2011C23.088 20.6728 23.0851 20.0051 23.0115 19.458C23.0072 19.4508 23.0028 19.4435 22.9984 19.4363C22.3094 18.2746 22.3685 16.5788 23.5282 15.7268C24.6695 14.8878 25.5838 14.0947 25.9169 12.6488C26.0583 12.0341 26.0361 11.4002 25.93 10.7817C25.7441 9.69284 25.4642 9.05843 25.5058 7.861C25.5344 7.04326 25.6308 5.07392 25.5969 3.44423C25.2903 3.82777 24.9954 4.24412 24.7286 4.64358L23.3113 6.91975L21.7922 6.35143C21.629 6.29065 21.4939 6.22117 21.3501 6.14109V6.14109ZM22.4871 4.50802C22.2319 4.41249 22.2135 4.28368 21.6222 4.19008C20.2654 3.9754 18.6955 4.51332 18.4263 4.51766L16.9789 3.6015C15.7029 2.83249 13.4813 1.63265 12.0358 1.35042C11.1521 1.1777 10.708 1.40156 10.7143 2.32544C10.7269 4.11048 12.5864 7.54404 13.489 9.14913C13.6251 9.39083 13.8101 9.66245 13.9268 9.89161C14.0333 10.101 13.9258 10.747 13.9185 11.036C13.8808 12.5002 14.1398 13.9113 14.718 15.0287C15.1993 15.9588 15.8991 16.6975 16.7852 17.1809C16.9077 17.2479 17.0854 17.3068 17.1997 17.3907C17.13 18.4627 15.7974 19.884 14.9683 20.5734C14.4391 21.0134 13.643 21.5735 13.0159 21.8765C10.6432 23.0213 8.34884 24.9159 7.63023 27.3276C7.40797 28.073 7.48641 28.5333 7.5053 29.3143C7.54258 30.85 7.12081 31.7729 5.46715 31.5673C4.2798 31.4197 3.0847 30.8369 2.45617 30.2445C2.14625 29.9526 1.79809 29.4504 1.63635 28.8835C1.41845 28.1193 1.53563 27.6779 1.6688 26.9542C1.12742 27.0782 0.57878 27.6542 0.351674 28.073C-0.0352314 28.7856 -0.0550851 29.2386 0.0984178 30.1316C0.568127 32.8617 2.60628 34.338 5.23181 34.7925C5.8957 34.9073 7.40845 35.0207 8.04232 34.7722C8.31446 34.6656 8.57982 33.9829 9.17156 34.0881C9.20739 34.2517 9.17204 34.3351 9.26162 34.4953C9.51972 34.9575 9.73036 34.8504 10.4858 34.8856C12.4736 34.9792 14.7771 35.0463 16.7373 34.9324C17.8694 34.8663 19.4659 34.7505 20.3865 34.3245C20.9816 34.049 21.1307 33.6906 20.8891 32.9071C20.723 32.3677 20.4857 32.1342 20.031 31.9046L19.8649 31.7772C19.9473 31.6899 19.9913 31.6947 20.1129 31.6233C20.5497 31.3662 21.0513 30.7168 21.3651 30.3014C21.4595 30.1765 21.4508 30.1494 21.5656 30.0597C21.5908 31.0328 21.5041 32.3151 21.4281 33.295C21.4092 33.5376 21.3143 33.8208 21.4024 34.037C21.784 34.972 25.1451 35.0699 26.0864 34.3983C26.4966 34.106 26.3368 33.5642 26.053 33.2236C25.8269 32.9524 25.4637 32.6799 24.9858 32.5665C24.977 31.6132 25.0274 30.63 25.0443 29.6709C25.0816 27.5563 25.2143 20.5782 24.9339 18.9534C24.8768 18.6214 24.8303 18.6528 24.7005 18.4347C24.5296 18.1467 24.4192 17.5195 24.702 17.3116C26.0942 16.2883 27.3692 15.1517 27.8437 13.0893C28.0447 12.217 28.0292 11.3312 27.8791 10.4512C27.7168 9.5018 27.4457 8.96339 27.482 7.92903C27.5125 7.04471 27.9105 0.274085 26.8108 0.0183897C26.193 -0.125379 24.9218 1.15599 24.6613 1.49129C24.5519 1.63217 24.4323 1.7605 24.3161 1.89751C23.9291 2.35101 23.4086 3.06599 23.0667 3.57931L22.4885 4.50802H22.4871Z" fill="white" stroke="white" stroke-width="0.0756195" stroke-miterlimit="22.9256"/>
</g>
<defs>
<clipPath id="clip0">
<rect width="28" height="35" fill="white"/>
</clipPath>
</defs>
</svg>
