<svg width="58" height="58" viewBox="0 0 58 58" fill="none" xmlns="http://www.w3.org/2000/svg">
<circle cx="29" cy="29" r="29" fill="none" fill-opacity="0.39"/>
<g clip-path="url(#clip0)">
<path d="M43.1444 13H35.5822C34.8434 13 34.2449 13.5986 34.2449 14.3369C34.2449 15.0753 34.8434 15.6741 35.5822 15.6741H39.0924L30.6564 24.1102C28.9457 23.0635 26.9367 22.4589 24.789 22.4589C18.5743 22.4589 13.5183 27.5147 13.5183 33.7294C13.5183 39.9446 18.5743 45.0001 24.789 45.0001C31.0038 45.0001 36.0597 39.9446 36.0597 33.7294C36.0597 31.0418 35.1125 28.5723 33.5373 26.6332L41.8079 18.3627V22.3638C41.8079 23.1022 42.4065 23.7009 43.1444 23.7009C43.8831 23.7009 44.4817 23.1022 44.4817 22.3638V14.3369C44.4818 13.5986 43.8832 13 43.1444 13ZM24.789 41.18C20.6811 41.18 17.3386 37.8376 17.3386 33.7293C17.3386 29.6216 20.6806 26.2794 24.789 26.2794C28.897 26.2794 32.2388 29.6216 32.2388 33.7293C32.2388 37.8376 28.897 41.18 24.789 41.18Z" fill="#49BBAC"/>
</g>
<defs>
<clipPath id="clip0">
<rect x="13" y="13" width="32" height="32" fill="white"/>
</clipPath>
</defs>
</svg>

